La_roquette.ufo
<glyph name="exclam" format="1">
  <advance width="1000"/>
  <unicode hex="0021"/>
  <outline>
    <contour>
      <point x="0" y="200" type="move"/>
      <point x="0" y="796" type="line"/>
    </contour>
    <contour>
      <point x="0" y="44" type="move"/>
      <point x="0" y="5" type="line"/>
    </contour>
  </outline>
</glyph>
<glyph name="quotedbl" format="1">
  <advance width="1000"/>
  <unicode hex="0022"/>
  <outline>
    <contour>
      <point x="58" y="800" type="move"/>
      <point x="59" y="676" type="line"/>
    </contour>
    <contour>
      <point x="0" y="800" type="move"/>
      <point x="0.00292969" y="675.999" type="line"/>
    </contour>
  </outline>
</glyph>
<glyph name="numbersign" format="1">
  <advance width="1000"/>
  <unicode hex="0023"/>
  <outline>
    <contour>
      <point x="185.5" y="561" type="line"/>
      <point x="93" y="0" type="line"/>
    </contour>
    <contour>
      <point x="312" y="561" type="line"/>
      <point x="219.5" y="0" type="line"/>
    </contour>
    <contour>
      <point x="396.47" y="360" type="line"/>
      <point x="0" y="360" type="line"/>
    </contour>
    <contour>
      <point x="396.5" y="201" type="line"/>
      <point x="0" y="201" type="line"/>
    </contour>
  </outline>
</glyph>
<glyph name="dollar" format="1">
  <advance width="1000"/>
  <unicode hex="0024"/>
  <outline>
    <contour>
      <point x="230.396" y="-88.9375" type="line"/>
      <point x="230.396" y="1.0625" type="line"/>
    </contour>
    <contour>
      <point x="239.981" y="801.641" type="line"/>
      <point x="239.981" y="891.641" type="line"/>
    </contour>
    <contour>
      <point x="420.378" y="726.918" type="move"/>
      <point x="338.463" y="784.276" type="line"/>
      <point x="239.981" y="801.641" type="line"/>
      <point x="141.502" y="784.276" type="line"/>
      <point x="59.5859" y="726.918" type="line"/>
      <point x="2.44727" y="645.071" type="line"/>
      <point x="-2" y="650"/>
      <point x="-0.0185547" y="586.487"/>
      <point x="-0.0185547" y="586.487" type="curve"/>
      <point x="47.9814" y="505.641" type="line"/>
      <point x="129.896" y="448.282" type="line"/>
      <point x="228.378" y="430.918" type="line"/>
      <point x="332.065" y="412.999" type="line"/>
      <point x="413.981" y="355.641" type="line"/>
      <point x="469.12" y="273.794" type="line"/>
      <point x="472" y="278"/>
      <point x="465.931" y="157.632"/>
      <point x="465.931" y="157.632" type="curve"/>
      <point x="410.792" y="75.7852" type="line"/>
      <point x="328.876" y="18.4268" type="line"/>
      <point x="230.396" y="1.0625" type="line"/>
      <point x="131.915" y="18.4268" type="line"/>
      <point x="50" y="75.7852" type="line"/>
      <point x="0" y="156.632" type="line"/>
    </contour>
  </outline>
</glyph>
<glyph name="percent" format="1">
  <advance width="1000"/>
  <unicode hex="0025"/>
  <outline>
    <contour>
      <point x="0.75" y="438.6" type="move"/>
      <point x="0.75" y="399.6" type="line"/>
    </contour>
    <contour>
      <point x="301.75" y="138.6" type="move"/>
      <point x="301.75" y="99.5996" type="line"/>
    </contour>
    <contour>
      <point x="0" y="0" type="move"/>
      <point x="289.75" y="501.6" type="line"/>
    </contour>
  </outline>
</glyph>
<glyph name="ampersand" format="1">
  <advance width="1000"/>
  <unicode hex="0026"/>
  <outline>
    <contour>
      <point x="266" y="360" type="move"/>
      <point x="407" y="359" type="line"/>
    </contour>
    <contour>
      <point x="335.277" y="685.072" type="move" smooth="yes"/>
    </contour>
    <contour>
      <point x="170" y="468" type="move"/>
      <point x="97.0645" y="480.156" type="line"/>
      <point x="39.7227" y="520.307" type="line"/>
      <point x="1.72266" y="580.928" type="line"/>
      <point x="1.72266" y="580.928"/>
      <point x="0" y="681"/>
      <point x="4.72266" y="685.072" type="curve" smooth="yes"/>
    </contour>
    <contour>
      <point x="1.72266" y="356.072" type="move" smooth="yes"/>
      <point x="0" y="360"/>
      <point x="-0.0645407" y="112.928"/>
      <point x="0.722656" y="112.928" type="curve" smooth="yes"/>
      <point x="35.7227" y="52.3066" type="line"/>
      <point x="93.0645" y="12.1562" type="line"/>
      <point x="166" y="0" type="line"/>
      <point x="230.938" y="12.1562" type="line"/>
      <point x="288.277" y="52.3066" type="line"/>
      <point x="331.277" y="112.928" type="line"/>
      <point x="331.277" y="112.928"/>
      <point x="334" y="357"/>
      <point x="332.277" y="356.072" type="curve" smooth="yes"/>
    </contour>
    <contour>
      <point x="0.861328" y="581.838" type="move" smooth="yes"/>
    </contour>
    <contour>
      <point x="-3.13867" y="113.838" type="move" smooth="yes"/>
    </contour>
    <contour>
      <point x="4.72266" y="685.072" type="move"/>
      <point x="47.7227" y="745.693" type="line"/>
      <point x="105.062" y="785.844" type="line"/>
      <point x="174" y="798" type="line"/>
      <point x="242.936" y="785.844" type="line"/>
      <point x="300.277" y="745.693" type="line"/>
      <point x="335.277" y="685.072" type="line"/>
    </contour>
    <contour>
      <point x="339.139" y="684.162" type="move" smooth="yes"/>
    </contour>
    <contour>
      <point x="1.72266" y="356.072" type="move"/>
      <point x="44.7227" y="416.693" type="line"/>
      <point x="102.062" y="456.844" type="line"/>
      <point x="171" y="469" type="line"/>
    </contour>
    <contour>
      <point x="332.277" y="356.072" type="move" smooth="yes"/>
    </contour>
    <contour>
      <point x="336.139" y="355.162" type="move" smooth="yes"/>
    </contour>
  </outline>
</glyph>
<glyph name="quotesingle" format="1">
  <advance width="1000"/>
  <unicode hex="0027"/>
  <outline>
    <contour>
      <point x="0" y="800" type="move"/>
      <point x="0" y="601" type="line"/>
    </contour>
  </outline>
</glyph>
<glyph name="parenleft" format="1">
  <advance width="1000"/>
  <unicode hex="0028"/>
  <outline>
    <contour>
      <point x="133.765" y="-1.79199" type="move"/>
    </contour>
    <contour>
      <point x="133.674" y="801" type="move" smooth="yes"/>
    </contour>
    <contour>
      <point x="133.674" y="801" type="move" smooth="yes"/>
    </contour>
    <contour>
      <point x="133.674" y="801" type="move" smooth="yes"/>
    </contour>
    <contour>
      <point x="134.674" y="2.06934" type="move"/>
      <point x="52.8271" y="57.208" type="line"/>
      <point x="-4.53125" y="139.124" type="line"/>
      <point x="-2.35742" y="445.208" type="line"/>
      <point x="-4.53125" y="669.085" type="line"/>
      <point x="52.8271" y="751" type="line"/>
      <point x="133.674" y="801" type="line"/>
    </contour>
  </outline>
</glyph>
<glyph name="parenright" format="1">
  <advance width="1000"/>
  <unicode hex="0029"/>
  <outline>
    <contour>
      <point x="-3.62207" y="801" type="move"/>
    </contour>
    <contour>
      <point x="-3.53125" y="-1.79199" type="move" smooth="yes"/>
    </contour>
    <contour>
      <point x="-3.53125" y="-1.79199" type="move" smooth="yes"/>
    </contour>
    <contour>
      <point x="-3.53125" y="-1.79199" type="move" smooth="yes"/>
    </contour>
    <contour>
      <point x="-4.53125" y="797.139" type="move"/>
      <point x="77.3154" y="742" type="line"/>
      <point x="134.674" y="660.084" type="line"/>
      <point x="132.5" y="354" type="line"/>
      <point x="134.674" y="130.123" type="line"/>
      <point x="77.3154" y="48.208" type="line"/>
      <point x="-3.53125" y="-1.79199" type="line"/>
    </contour>
  </outline>
</glyph>
<glyph name="plus" format="1">
  <advance width="1000"/>
  <unicode hex="002B"/>
  <outline>
    <contour>
      <point x="199.25" y="501.8" type="line"/>
      <point x="198.5" y="5.5" type="line"/>
    </contour>
    <contour>
      <point x="403.25" y="251.8" type="line"/>
      <point x="6.75" y="251.8" type="line"/>
    </contour>
  </outline>
</glyph>
<glyph name="comma" format="1">
  <advance width="1000"/>
  <unicode hex="002C"/>
  <outline>
    <contour>
      <point x="0" y="39" type="move"/>
      <point x="0.00292969" y="-0.000976562" type="line"/>
      <point x="-34.667" y="-55.998" type="line"/>
    </contour>
  </outline>
</glyph>
<glyph name="hyphen" format="1">
  <advance width="1000"/>
  <unicode hex="002D"/>
  <outline>
    <contour>
      <point x="343.5" y="201" type="line"/>
      <point x="0" y="201" type="line"/>
    </contour>
  </outline>
</glyph>
<glyph name="period" format="1">
  <advance width="1000"/>
  <unicode hex="002E"/>
  <outline>
    <contour>
      <point x="0" y="44" type="move"/>
      <point x="0" y="5" type="line"/>
    </contour>
  </outline>
</glyph>
<glyph name="slash" format="1">
  <advance width="1000"/>
  <unicode hex="002F"/>
  <outline>
    <contour>
      <point x="0" y="0" type="move"/>
      <point x="294.5" y="804" type="line"/>
    </contour>
  </outline>
</glyph>
<glyph name="zero" format="1">
  <advance width="1000"/>
  <unicode hex="0030"/>
  <outline>
    <contour>
      <point x="330.063" y="0.37207" type="move"/>
      <point x="450.875" y="70.123" type="line"/>
      <point x="520.625" y="190.935" type="line"/>
      <point x="520.625" y="609.438" type="line"/>
      <point x="450.875" y="730.249" type="line"/>
      <point x="330.063" y="800" type="line"/>
      <point x="190.562" y="800" type="line"/>
      <point x="69.751" y="730.249" type="line"/>
      <point x="0" y="609.438" type="line"/>
      <point x="0" y="190.935" type="line"/>
      <point x="69.751" y="70.123" type="line"/>
      <point x="190.562" y="0.37207" type="line"/>
      <point x="330.063" y="0.37207" type="line"/>
      <point x="190.562" y="0.37207" type="line"/>
      <point x="69.751" y="70.123" type="line"/>
      <point x="453.379" y="734.586" type="line"/>
    </contour>
  </outline>
</glyph>
<glyph name="two" format="1">
  <advance width="1000"/>
  <unicode hex="0032"/>
  <outline>
    <contour>
      <point x="36.126" y="661.684" type="move"/>
      <point x="52.332" y="707.754" type="line"/>
      <point x="67.373" y="721.552"/>
      <point x="97.4082" y="759.312"/>
      <point x="100.033" y="760.949" type="curve" smooth="yes"/>
      <point x="163.021" y="798.049" type="line"/>
      <point x="236.716" y="803.019" type="line"/>
      <point x="305.131" y="785.638" type="line"/>
      <point x="356.12" y="734.079" type="line"/>
      <point x="391.439" y="658" type="line"/>
      <point x="0" y="1.94824" type="line"/>
      <point x="394.295" y="1.94824" type="line"/>
    </contour>
  </outline>
</glyph>
<glyph name="three" format="1">
  <advance width="1000"/>
  <unicode hex="0033"/>
  <outline>
    <contour>
      <point x="2.23633" y="786.924" type="move"/>
      <point x="50.2363" y="795.924" type="line"/>
      <point x="69.7061" y="789.797"/>
      <point x="102.236" y="777.924"/>
      <point x="100.158" y="780.213" type="curve" smooth="yes"/>
      <point x="160.779" y="737.213" type="line"/>
      <point x="200.93" y="679.874" type="line"/>
      <point x="213.086" y="610.936" type="line"/>
      <point x="200.93" y="542" type="line"/>
      <point x="160.779" y="484.659" type="line"/>
      <point x="110.93" y="428" type="line"/>
      <point x="199.907" y="373.403" type="line"/>
      <point x="273.078" y="300.232" type="line"/>
      <point x="299.86" y="200.279" type="line"/>
      <point x="273.078" y="100.326" type="line"/>
      <point x="199.907" y="27.1553" type="line"/>
      <point x="99.9531" y="0.37207" type="line"/>
      <point x="0" y="27.1553" type="line"/>
    </contour>
  </outline>
</glyph>
<glyph name="four" format="1">
  <advance width="1000"/>
  <unicode hex="0034"/>
  <outline>
    <contour>
      <point x="1.03711" y="343.07" type="move"/>
      <point x="572.199" y="343.07" type="line"/>
      <point x="343.734" y="343.07" type="line"/>
      <point x="343.734" y="0.37207" type="line"/>
      <point x="343.734" y="800" type="line"/>
      <point x="0" y="343.85" type="line"/>
    </contour>
  </outline>
</glyph>
<glyph name="five" format="1">
  <advance width="1000"/>
  <unicode hex="0035"/>
  <outline>
    <contour>
      <point x="0" y="798.224" type="move"/>
      <point x="-0" y="393.224" type="line"/>
      <point x="44.7227" y="443.693" type="line"/>
      <point x="102.062" y="483.844" type="line"/>
      <point x="171" y="496" type="line"/>
      <point x="239.936" y="483.844" type="line"/>
      <point x="297.277" y="443.693" type="line"/>
      <point x="332.277" y="383.072" type="line"/>
      <point x="334" y="384"/>
      <point x="331.277" y="112.928"/>
      <point x="331.277" y="112.928" type="curve"/>
      <point x="288.277" y="52.3066" type="line"/>
      <point x="230.938" y="12.1562" type="line"/>
      <point x="166" y="0" type="line"/>
      <point x="93.0645" y="12.1562" type="line"/>
      <point x="35.7227" y="52.3066" type="line"/>
      <point x="0.722656" y="112.928" type="line"/>
    </contour>
    <contour>
      <point x="-3.13867" y="113.838" type="move" smooth="yes"/>
    </contour>
    <contour>
      <point x="0.722656" y="112.928" type="move" smooth="yes"/>
    </contour>
    <contour>
      <point x="0" y="798.224" type="move"/>
      <point x="332" y="801.224" type="line"/>
    </contour>
  </outline>
</glyph>
<glyph name="six" format="1">
  <advance width="1000"/>
  <unicode hex="0036"/>
  <outline>
    <contour>
      <point x="799.628" y="800" type="move"/>
      <point x="0" y="800" type="line"/>
      <point x="0" y="0.37207" type="line"/>
      <point x="799.628" y="0.37207" type="line"/>
      <point x="799.628" y="400.187" type="line"/>
      <point x="0" y="400.187" type="line"/>
    </contour>
  </outline>
</glyph>
<glyph name="seven" format="1">
  <advance width="1000"/>
  <unicode hex="0037"/>
  <outline>
    <contour>
      <point x="134.433" y="0.37207" type="move"/>
      <point x="425.473" y="800" type="line"/>
      <point x="0" y="800" type="line"/>
    </contour>
    <contour>
      <point x="198.554" y="459.622" type="move"/>
      <point x="397.108" y="459.622" type="line"/>
    </contour>
  </outline>
</glyph>
<glyph name="eight" format="1">
  <advance width="1000"/>
  <unicode hex="0038"/>
  <outline>
    <contour>
      <point x="4.72266" y="680.072" type="curve"/>
      <point x="47.7227" y="740.693" type="line"/>
      <point x="105.062" y="780.844" type="line"/>
      <point x="174" y="793" type="line"/>
      <point x="242.936" y="780.844" type="line"/>
      <point x="300.277" y="740.693" type="line"/>
      <point x="335.277" y="680.072" type="line"/>
      <point x="332" y="679"/>
      <point x="335.277" y="575.928"/>
      <point x="335.277" y="575.928" type="curve"/>
      <point x="292.277" y="515.307" type="line"/>
      <point x="234.938" y="475.156" type="line"/>
      <point x="170" y="463" type="line"/>
      <point x="97.0645" y="475.156" type="line"/>
      <point x="39.7227" y="515.307" type="line"/>
      <point x="1.72266" y="575.928" type="line"/>
      <point x="1.72266" y="575.928"/>
      <point x="0" y="676"/>
    </contour>
    <contour>
      <point x="1.72266" y="356.072" type="curve"/>
      <point x="44.7227" y="416.693" type="line"/>
      <point x="102.062" y="456.844" type="line"/>
      <point x="171" y="464" type="line"/>
      <point x="239.936" y="456.844" type="line"/>
      <point x="297.277" y="416.693" type="line"/>
      <point x="332.277" y="356.072" type="line"/>
      <point x="334" y="357"/>
      <point x="331.277" y="112.928"/>
      <point x="331.277" y="112.928" type="curve"/>
      <point x="288.277" y="52.3066" type="line"/>
      <point x="230.938" y="12.1562" type="line"/>
      <point x="166" y="0" type="line"/>
      <point x="93.0645" y="12.1562" type="line"/>
      <point x="35.7227" y="52.3066" type="line"/>
      <point x="0.722656" y="112.928" type="line" smooth="yes"/>
      <point x="-0.0645407" y="112.928"/>
      <point x="0" y="360"/>
    </contour>
    <contour>
      <point x="0.861328" y="576.838" type="move" smooth="yes"/>
    </contour>
    <contour>
      <point x="-3.13867" y="113.838" type="move" smooth="yes"/>
    </contour>
    <contour>
      <point x="339.139" y="679.162" type="move" smooth="yes"/>
    </contour>
    <contour>
      <point x="336.139" y="355.162" type="move" smooth="yes"/>
    </contour>
  </outline>
</glyph>
<glyph name="nine" format="1">
  <advance width="1000"/>
  <unicode hex="0039"/>
  <outline>
    <contour>
      <point x="35.7227" y="52.3066" type="move"/>
      <point x="93.0645" y="12.1562" type="line"/>
      <point x="166" y="0" type="line"/>
      <point x="230.938" y="12.1562" type="line"/>
      <point x="288.277" y="52.3066" type="line"/>
      <point x="331.277" y="112.928" type="line"/>
      <point x="331.277" y="112.928"/>
      <point x="337.001" y="686"/>
      <point x="335.277" y="685.072" type="curve"/>
      <point x="300.277" y="745.693" type="line"/>
      <point x="242.936" y="785.844" type="line"/>
      <point x="174" y="798" type="line"/>
      <point x="105.062" y="785.844" type="line"/>
      <point x="47.7227" y="745.693" type="line"/>
      <point x="2.72266" y="685.072" type="line"/>
      <point x="-2" y="681"/>
      <point x="0" y="570"/>
      <point x="0" y="570" type="curve"/>
      <point x="39.7227" y="520.307" type="line"/>
      <point x="97.0645" y="480.156" type="line"/>
      <point x="164" y="458" type="line"/>
      <point x="234.938" y="480.156" type="line"/>
      <point x="292.277" y="520.307" type="line"/>
      <point x="336" y="568" type="line"/>
    </contour>
  </outline>
</glyph>
<glyph name="colon" format="1">
  <advance width="1000"/>
  <unicode hex="003A"/>
  <outline>
    <contour>
      <point x="0" y="339" type="move"/>
      <point x="0" y="300" type="line"/>
    </contour>
    <contour>
      <point x="0" y="39" type="move"/>
      <point x="0" y="0" type="line"/>
    </contour>
  </outline>
</glyph>
<glyph name="semicolon" format="1">
  <advance width="1000"/>
  <unicode hex="003B"/>
  <outline>
    <contour>
      <point x="0" y="39" type="move"/>
      <point x="0.00292969" y="-0.000976562" type="line"/>
      <point x="-34.667" y="-55.998" type="line"/>
    </contour>
    <contour>
      <point x="0" y="339" type="move"/>
      <point x="0" y="300" type="line"/>
    </contour>
  </outline>
</glyph>
<glyph name="less" format="1">
  <advance width="1000"/>
  <unicode hex="003C"/>
  <outline>
    <contour>
      <point x="396.5" y="0" type="move"/>
      <point x="-8.75" y="252" type="line"/>
      <point x="393.25" y="500" type="line"/>
    </contour>
  </outline>
</glyph>
<glyph name="equal" format="1">
  <advance width="1000"/>
  <unicode hex="003D"/>
  <outline>
    <contour>
      <point x="396.47" y="360" type="line"/>
      <point x="0" y="360" type="line"/>
    </contour>
    <contour>
      <point x="396.5" y="201" type="line"/>
      <point x="0" y="201" type="line"/>
    </contour>
  </outline>
</glyph>
<glyph name="greater" format="1">
  <advance width="1000"/>
  <unicode hex="003E"/>
  <outline>
    <contour>
      <point x="0" y="600" type="move"/>
      <point x="396.5" y="300" type="line"/>
      <point x="0" y="0" type="line"/>
    </contour>
  </outline>
</glyph>
<glyph name="question" format="1">
  <advance width="1000"/>
  <unicode hex="003F"/>
  <outline>
    <contour>
      <point x="240" y="87" type="move"/>
      <point x="240" y="48" type="line"/>
    </contour>
    <contour>
      <point x="2.125" y="634.675" type="move"/>
      <point x="52.125" y="721.277" type="line"/>
      <point x="134.041" y="778.636" type="line"/>
      <point x="232.521" y="796" type="line"/>
      <point x="331.002" y="778.636" type="line"/>
      <point x="412.917" y="721.277" type="line"/>
      <point x="452.803" y="630.3" type="line"/>
      <point x="449.906" y="540" type="line"/>
      <point x="363" y="441" type="line"/>
      <point x="244" y="405" type="line"/>
      <point x="241" y="210" type="line"/>
    </contour>
    <contour>
      <point x="2.125" y="634.675" type="move" smooth="yes"/>
    </contour>
  </outline>
</glyph>
<glyph name="A" format="1">
  <advance width="1000"/>
  <unicode hex="0041"/>
  <outline>
    <contour>
      <point x="0" y="0.37207" type="move"/>
      <point x="262.997" y="800" type="line"/>
      <point x="525.995" y="0.37207" type="line"/>
      <point x="433.945" y="280.242" type="line"/>
      <point x="49.4688" y="280.242" type="line"/>
    </contour>
  </outline>
</glyph>
<glyph name="B" format="1">
  <advance width="1000"/>
  <unicode hex="0042"/>
  <outline>
    <contour>
      <point x="-0.00292969" y="465.002" type="move" smooth="yes"/>
      <point x="-0.00292969" y="462.002"/>
      <point x="-0.000976562" y="800"/>
      <point x="-0.000976562" y="800" type="curve"/>
      <point x="325.378" y="799.558" type="line"/>
      <point x="386" y="756.555" type="line"/>
      <point x="426.15" y="699.214" type="line"/>
      <point x="438.306" y="630.277" type="line"/>
      <point x="426.15" y="561.341" type="line"/>
      <point x="386" y="504" type="line"/>
      <point x="324.469" y="465.146" type="line"/>
    </contour>
    <contour>
      <point x="325.469" y="0.208008" type="move" smooth="yes"/>
    </contour>
    <contour>
      <point x="325.469" y="0.208008" type="line" smooth="yes"/>
      <point x="325.315" y="0"/>
      <point x="1.3125" y="0.00195312"/>
      <point x="-0.00195312" y="0.00195312" type="curve"/>
      <point x="0" y="465" type="line"/>
      <point x="324.469" y="465.139" type="line"/>
      <point x="406.315" y="410" type="line"/>
      <point x="463.674" y="328.084" type="line"/>
      <point x="479" y="231" type="line"/>
      <point x="463.674" y="131.123" type="line"/>
      <point x="406.315" y="49.208" type="line"/>
    </contour>
  </outline>
</glyph>
<glyph name="B" format="1">
  <advance width="1000"/>
  <unicode hex="0042"/>
  <outline>
    <contour>
      <point x="91.0928" y="0.37207" type="move"/>
      <point x="91.0928" y="708.907" type="line"/>
      <point x="0" y="800" type="line"/>
      <point x="303.643" y="496.357" type="line"/>
      <point x="197.367" y="390.083" type="line"/>
      <point x="318.824" y="268.626" type="line"/>
      <point x="318.824" y="107.596" type="line"/>
      <point x="250.505" y="39.2754" type="line"/>
    </contour>
  </outline>
</glyph>
<glyph name="D" format="1">
  <advance width="1000"/>
  <unicode hex="0044"/>
  <outline>
    <contour>
      <point x="264.466" y="1.67969" type="move" smooth="yes"/>
      <point x="263" y="0"/>
      <point x="0" y="-0.556641"/>
      <point x="0" y="-0.556641" type="curve"/>
      <point x="0" y="801.388" type="line"/>
    </contour>
    <contour>
      <point x="500" y="158.249" type="move" smooth="yes"/>
      <point x="506" y="165.249"/>
      <point x="493.055" y="641.044"/>
      <point x="493.055" y="641.044" type="curve"/>
      <point x="437.916" y="722.891" type="line"/>
      <point x="356" y="780.249" type="line"/>
      <point x="257.521" y="797.613" type="line"/>
      <point x="257.521" y="797.613"/>
      <point x="0" y="801.249"/>
      <point x="0" y="801.388" type="curve" smooth="yes"/>
    </contour>
    <contour>
      <point x="500" y="158.249" type="move"/>
      <point x="444.861" y="76.4023" type="line"/>
      <point x="362.945" y="19.0439" type="line"/>
      <point x="264.466" y="1.67969" type="line"/>
    </contour>
    <contour>
      <point x="0" y="801.388" type="move"/>
      <point x="0" y="-0.556641" type="line"/>
    </contour>
  </outline>
</glyph>
<glyph name="E" format="1">
  <advance width="1000"/>
  <unicode hex="0045"/>
  <outline>
    <contour>
      <point x="0" y="0.37207" type="move"/>
      <point x="500.813" y="0.37207" type="line"/>
      <point x="0" y="0.37207" type="line"/>
      <point x="0" y="500.187" type="line"/>
      <point x="299.86" y="500.187" type="line"/>
    </contour>
    <contour>
      <point x="0" y="800" type="move"/>
      <point x="499.813" y="800" type="line"/>
    </contour>
  </outline>
</glyph>
<glyph name="F" format="1">
  <advance width="1000"/>
  <unicode hex="0046"/>
  <outline>
    <contour>
      <point x="226.453" y="502" type="move"/>
      <point x="0" y="502" type="line"/>
    </contour>
    <contour>
      <point x="0" y="502" type="move" smooth="yes"/>
    </contour>
    <contour>
      <point x="0" y="0.37207" type="move"/>
    </contour>
    <contour>
      <point x="0" y="0.37207" type="move"/>
      <point x="0" y="800" type="line"/>
    </contour>
    <contour>
      <point x="0" y="800" type="move"/>
      <point x="449.906" y="799" type="line"/>
    </contour>
  </outline>
</glyph>
<glyph name="H" format="1">
  <advance width="1000"/>
  <unicode hex="0048"/>
  <outline>
    <contour>
      <point x="0" y="0.37207" type="move"/>
      <point x="0" y="800" type="line"/>
      <point x="0" y="400.187" type="line"/>
      <point x="266.543" y="400.187" type="line"/>
      <point x="266.543" y="800" type="line"/>
      <point x="266.543" y="0.37207" type="line"/>
    </contour>
  </outline>
</glyph>
<glyph name="J" format="1">
  <advance width="1000"/>
  <unicode hex="004A"/>
  <outline>
    <contour>
      <point x="298" y="800" type="move"/>
      <point x="461.813" y="799" type="line"/>
      <point x="461.813" y="157.372" type="line"/>
      <point x="410.792" y="75.7852" type="line"/>
      <point x="328.876" y="18.4268" type="line"/>
      <point x="230.396" y="1.0625" type="line"/>
      <point x="131.915" y="18.4268" type="line"/>
      <point x="50" y="75.7852" type="line"/>
      <point x="0" y="156.632" type="line"/>
    </contour>
  </outline>
</glyph>
<glyph name="J" format="1">
  <advance width="1000"/>
  <unicode hex="004A"/>
  <outline>
    <contour>
      <point x="213.234" y="800" type="move"/>
      <point x="586.394" y="800" type="line"/>
      <point x="399.813" y="800" type="line"/>
      <point x="399.813" y="0.37207" type="line"/>
      <point x="0" y="0.37207" type="line"/>
    </contour>
  </outline>
</glyph>
<glyph name="K" format="1">
  <advance width="1000"/>
  <unicode hex="004B"/>
  <outline>
    <contour>
      <point x="0" y="799.058" type="move"/>
      <point x="0" y="0.37207" type="line"/>
    </contour>
    <contour>
      <point x="0" y="468.783" type="move"/>
      <point x="382.217" y="800" type="line"/>
      <point x="110.284" y="563.067" type="line"/>
      <point x="497.421" y="8.8877" type="line"/>
    </contour>
  </outline>
</glyph>
<glyph name="L" format="1">
  <advance width="1000"/>
  <unicode hex="004C"/>
  <outline>
    <contour>
      <point x="0" y="800" type="move"/>
      <point x="0" y="0.37207" type="line"/>
      <point x="399.813" y="0.37207" type="line"/>
    </contour>
  </outline>
</glyph>
<glyph name="M" format="1">
  <advance width="1000"/>
  <unicode hex="004D"/>
  <outline>
    <contour>
      <point x="664.055" y="0" type="move"/>
      <point x="540.297" y="794.252" type="line"/>
      <point x="338.055" y="88.002" type="line"/>
      <point x="140.242" y="800" type="line"/>
      <point x="0.0546875" y="0" type="line"/>
    </contour>
  </outline>
</glyph>
<glyph name="O" format="1">
  <advance width="1000"/>
  <unicode hex="004F"/>
  <outline>
    <contour>
      <point x="504.037" y="8.95703" type="move"/>
      <point x="688.527" y="114.937" type="line"/>
      <point x="795.043" y="298.499" type="line"/>
      <point x="795.043" y="510.458" type="line"/>
      <point x="688.527" y="694.021" type="line"/>
      <point x="504.037" y="800" type="line"/>
      <point x="291.006" y="800" type="line"/>
      <point x="106.516" y="694.021" type="line"/>
      <point x="0" y="510.458" type="line"/>
      <point x="0" y="298.499" type="line"/>
      <point x="106.516" y="114.937" type="line"/>
      <point x="291.006" y="8.95703" type="line"/>
      <point x="504.037" y="8.95703" type="line"/>
    </contour>
  </outline>
</glyph>
<glyph name="P" format="1">
  <advance width="1000"/>
  <unicode hex="0050"/>
  <outline>
    <contour>
      <point x="325.469" y="334.208" type="move" smooth="yes"/>
    </contour>
    <contour>
      <point x="325.469" y="334.208" type="move" smooth="yes"/>
      <point x="325.315" y="334"/>
      <point x="2.62988" y="331"/>
      <point x="1.31543" y="331" type="curve" smooth="yes"/>
    </contour>
    <contour>
      <point x="325.469" y="334.208" type="move"/>
      <point x="406.315" y="384.208" type="line"/>
      <point x="463.674" y="466.123" type="line"/>
      <point x="481.038" y="564.604" type="line"/>
      <point x="463.674" y="663.084" type="line"/>
      <point x="406.315" y="745" type="line"/>
      <point x="324.469" y="800.139" type="line"/>
      <point x="0" y="800" type="line"/>
      <point x="0" y="0.37207" type="line"/>
    </contour>
  </outline>
</glyph>
<glyph name="Q" format="1">
  <advance width="1000"/>
  <unicode hex="0051"/>
  <outline>
    <contour>
      <point x="462.917" y="634.675" type="move" smooth="yes"/>
      <point x="464" y="634"/>
      <point x="462.521" y="160"/>
      <point x="462.521" y="160" type="curve"/>
      <point x="412.521" y="73.3975" type="line"/>
      <point x="330.605" y="16.0391" type="line"/>
      <point x="232.125" y="-1.3252" type="line"/>
      <point x="133.645" y="16.0391" type="line"/>
      <point x="51.7295" y="73.3975" type="line"/>
      <point x="1.72949" y="160" type="line"/>
      <point x="1.72949" y="160"/>
      <point x="0" y="184"/>
      <point x="2.125" y="634.675" type="curve" smooth="yes"/>
    </contour>
    <contour>
      <point x="462.917" y="634.675" type="move"/>
      <point x="412.917" y="721.277" type="line"/>
      <point x="331.002" y="778.636" type="line"/>
      <point x="232.521" y="796" type="line"/>
      <point x="134.041" y="778.636" type="line"/>
      <point x="52.125" y="721.277" type="line"/>
      <point x="2.125" y="634.675" type="line"/>
    </contour>
    <contour>
      <point x="273.475" y="73.2812" type="move"/>
    </contour>
    <contour>
      <point x="273.475" y="73.2812" type="move"/>
      <point x="474.814" y="0" type="line"/>
    </contour>
  </outline>
</glyph>
<glyph name="Q" format="1">
  <advance width="1000"/>
  <unicode hex="0051"/>
  <outline>
    <contour>
      <point x="506.943" y="0.37207" type="move"/>
      <point x="692.498" y="107.502" type="line"/>
      <point x="799.628" y="293.057" type="line"/>
      <point x="799.628" y="507.316" type="line"/>
      <point x="692.498" y="692.87" type="line"/>
      <point x="506.943" y="800" type="line"/>
      <point x="292.684" y="800" type="line"/>
      <point x="107.13" y="692.87" type="line"/>
      <point x="0" y="507.316" type="line"/>
      <point x="0" y="293.057" type="line"/>
      <point x="107.13" y="107.502" type="line"/>
      <point x="292.684" y="0.37207" type="line"/>
      <point x="506.943" y="0.37207" type="line"/>
      <point x="708.282" y="-72.9092" type="line"/>
    </contour>
  </outline>
</glyph>
<glyph name="R" format="1">
  <advance width="1000"/>
  <unicode hex="0052"/>
  <outline>
    <contour>
      <point x="0" y="0.571289" type="move"/>
      <point x="0" y="800" type="line"/>
      <point x="282.151" y="800" type="line"/>
      <point x="415.158" y="666.992" type="line"/>
      <point x="415.158" y="478.892" type="line"/>
      <point x="282.151" y="345.885" type="line"/>
      <point x="0" y="345.885" type="line"/>
      <point x="282.151" y="345.885" type="line"/>
      <point x="627.971" y="0.0654297" type="line"/>
    </contour>
  </outline>
</glyph>
<glyph name="S" format="1">
  <advance width="1000"/>
  <unicode hex="0053"/>
  <outline>
    <contour>
      <point x="18.1768" y="281.124" type="move"/>
      <point x="6.12109" y="248.001" type="line"/>
      <point x="0" y="213.288" type="line"/>
      <point x="0" y="178.04" type="line"/>
      <point x="6.12109" y="143.327" type="line"/>
      <point x="18.1768" y="110.204" type="line"/>
      <point x="35.8008" y="79.6787" type="line"/>
      <point x="58.458" y="52.6768" type="line"/>
      <point x="85.46" y="30.0195" type="line"/>
      <point x="115.985" y="12.3955" type="line"/>
      <point x="149.108" y="0.339844" type="line"/>
      <point x="183.821" y="-5.78125" type="line"/>
      <point x="219.069" y="-5.78125" type="line"/>
      <point x="253.782" y="0.339844" type="line"/>
      <point x="286.905" y="12.3955" type="line"/>
      <point x="317.431" y="30.0195" type="line"/>
      <point x="344.433" y="52.6768" type="line"/>
      <point x="367.09" y="79.6787" type="line"/>
      <point x="384.714" y="110.204" type="line"/>
      <point x="396.77" y="143.327" type="line"/>
      <point x="402.891" y="178.04" type="line"/>
      <point x="402.891" y="213.288" type="line"/>
      <point x="396.77" y="248.001" type="line"/>
      <point x="384.714" y="281.124" type="line"/>
      <point x="367.09" y="311.649" type="line"/>
      <point x="344.433" y="338.651" type="line"/>
      <point x="317.431" y="361.309" type="line"/>
      <point x="286.905" y="378.933" type="line"/>
      <point x="253.782" y="390.988" type="line"/>
      <point x="184.356" y="403.23" type="line"/>
      <point x="151.234" y="415.286" type="line"/>
      <point x="120.708" y="432.91" type="line"/>
      <point x="93.7061" y="455.567" type="line"/>
      <point x="71.0488" y="482.569" type="line"/>
      <point x="53.4248" y="513.095" type="line"/>
      <point x="41.3691" y="546.218" type="line"/>
      <point x="35.248" y="580.931" type="line"/>
      <point x="35.248" y="616.179" type="line"/>
      <point x="41.3691" y="650.892" type="line"/>
      <point x="53.4248" y="684.015" type="line"/>
      <point x="71.0488" y="714.54" type="line"/>
      <point x="93.7061" y="741.542" type="line"/>
      <point x="120.708" y="764.199" type="line"/>
      <point x="151.234" y="781.823" type="line"/>
      <point x="184.356" y="793.879" type="line"/>
      <point x="219.069" y="800" type="line"/>
      <point x="254.317" y="800" type="line"/>
      <point x="289.03" y="793.879" type="line"/>
      <point x="322.153" y="781.823" type="line"/>
      <point x="352.68" y="764.199" type="line"/>
      <point x="379.681" y="741.542" type="line"/>
      <point x="402.338" y="714.54" type="line"/>
      <point x="419.963" y="684.015" type="line"/>
    </contour>
  </outline>
</glyph>
<glyph name="T" format="1">
  <advance width="1000"/>
  <unicode hex="0054"/>
  <outline>
    <contour>
      <point x="247.464" y="-0.62793" type="move"/>
      <point x="247.464" y="799" type="line"/>
      <point x="0" y="800" type="line"/>
      <point x="497.778" y="799" type="line"/>
    </contour>
  </outline>
</glyph>
<glyph name="V" format="1">
  <advance width="1000"/>
  <unicode hex="0056"/>
  <outline>
    <contour>
      <point x="0" y="800" type="move"/>
      <point x="247.464" y="0" type="line"/>
      <point x="497.778" y="799" type="line"/>
    </contour>
  </outline>
</glyph>
<glyph name="W" format="1">
  <advance width="1000"/>
  <unicode hex="0057"/>
  <outline>
    <contour>
      <point x="0" y="800" type="move"/>
      <point x="193.753" y="2.11035" type="line"/>
      <point x="395.847" y="794.296" type="line"/>
      <point x="589.6" y="2.40527" type="line"/>
      <point x="790.693" y="797.591" type="line"/>
    </contour>
  </outline>
</glyph>
<glyph name="X" format="1">
  <advance width="1000"/>
  <unicode hex="0058"/>
  <outline>
    <contour>
      <point x="0" y="800" type="move"/>
      <point x="501" y="0" type="line"/>
    </contour>
    <contour>
      <point x="501" y="799.388" type="move"/>
      <point x="0" y="-0.556641" type="line"/>
    </contour>
  </outline>
</glyph>
<glyph name="X" format="1">
  <advance width="1000"/>
  <unicode hex="0058"/>
  <outline>
    <contour>
      <point x="0" y="800" type="move"/>
      <point x="800.557" y="-0.556641" type="line"/>
      <point x="400.278" y="399.722" type="line"/>
      <point x="800.557" y="800" type="line"/>
      <point x="0" y="-0.556641" type="line"/>
    </contour>
  </outline>
</glyph>
<glyph name="Y" format="1">
  <advance width="1000"/>
  <unicode hex="0059"/>
  <outline>
    <contour>
      <point x="466.206" y="800" type="move"/>
      <point x="233.104" y="159.555" type="line"/>
      <point x="0" y="800" type="line"/>
      <point x="233.104" y="159.555" type="line"/>
      <point x="174.827" y="-0.556641" type="line"/>
    </contour>
  </outline>
</glyph>
<glyph name="Z" format="1">
  <advance width="1000"/>
  <unicode hex="005A"/>
  <outline>
    <contour>
      <point x="45.7842" y="800" type="move"/>
      <point x="800.557" y="800" type="line"/>
      <point x="0" y="-0.556641" type="line"/>
      <point x="754.772" y="-0.556641" type="line"/>
    </contour>
  </outline>
</glyph>
<glyph name="bracketleft" format="1">
  <advance width="1000"/>
  <unicode hex="005B"/>
  <outline>
    <contour>
      <point x="200" y="804" type="move"/>
      <point x="0" y="804" type="line"/>
      <point x="0" y="0" type="line"/>
      <point x="200" y="0" type="line"/>
    </contour>
  </outline>
</glyph>
<glyph name="asciicircum" format="1">
  <advance width="1000"/>
  <unicode hex="005E"/>
  <outline>
    <contour>
      <point x="0" y="600" type="move"/>
      <point x="198.5" y="798" type="line"/>
      <point x="396.5" y="600" type="line"/>
    </contour>
  </outline>
</glyph>
<glyph name="underscore" format="1">
  <advance width="1000"/>
  <unicode hex="005F"/>
  <outline>
    <contour>
      <point x="1" y="1" type="move"/>
      <point x="290.97" y="1" type="line"/>
    </contour>
  </outline>
</glyph>
<glyph name="grave" format="1">
  <advance width="1000"/>
  <unicode hex="0060"/>
  <outline>
    <contour>
      <point x="0" y="800" type="move"/>
      <point x="117.5" y="600" type="line"/>
    </contour>
  </outline>
</glyph>
<glyph name="a" format="1">
  <advance width="1000"/>
  <unicode hex="0061"/>
  <outline>
    <contour>
      <point x="334.395" y="387.162" type="move" smooth="yes"/>
    </contour>
    <contour>
      <point x="333" y="0" type="move"/>
      <point x="330.532" y="388.072" type="line"/>
      <point x="295.532" y="448.693" type="line"/>
      <point x="238.191" y="488.844" type="line"/>
      <point x="169.255" y="501" type="line"/>
      <point x="0" y="460" type="line"/>
    </contour>
    <contour>
      <point x="331.255" y="352" type="line" smooth="yes"/>
      <point x="327.978" y="350.928"/>
      <point x="333.186" y="116.771"/>
      <point x="333.186" y="116.771" type="curve"/>
      <point x="290.186" y="56.1504" type="line"/>
      <point x="232.847" y="16" type="line"/>
      <point x="232.847" y="16"/>
      <point x="94.9727" y="15"/>
      <point x="94.9727" y="16" type="curve" smooth="yes"/>
      <point x="37.6309" y="56.1504" type="line"/>
      <point x="-0.369141" y="116.771" type="line"/>
      <point x="-0.369141" y="116.771"/>
      <point x="-2.0918" y="216.844"/>
      <point x="2.63086" y="220.916" type="curve"/>
      <point x="45.6309" y="281.537" type="line"/>
    </contour>
    <contour>
      <point x="-1.23047" y="117.682" type="move" smooth="yes"/>
    </contour>
  </outline>
</glyph>
<glyph name="b" format="1">
  <advance width="1000"/>
  <unicode hex="0062"/>
  <outline>
    <contour>
      <point x="0" y="798" type="move"/>
      <point x="0" y="0" type="line"/>
    </contour>
    <contour>
      <point x="0.222656" y="289.072" type="curve"/>
      <point x="43.2227" y="349.693" type="line"/>
      <point x="100.562" y="389.844" type="line"/>
      <point x="169.5" y="402" type="line"/>
      <point x="238.436" y="389.844" type="line"/>
      <point x="295.777" y="349.693" type="line"/>
      <point x="330.777" y="289.072" type="line"/>
      <point x="327.5" y="288"/>
      <point x="330.777" y="130.928"/>
      <point x="330.777" y="130.928" type="curve"/>
      <point x="287.777" y="70.3066" type="line"/>
      <point x="230.438" y="30.1562" type="line"/>
      <point x="165.5" y="18" type="line"/>
      <point x="92.5645" y="30.1562" type="line"/>
      <point x="35.2227" y="70.3066" type="line"/>
      <point x="-2.77734" y="130.928" type="line"/>
      <point x="-2.77734" y="130.928"/>
      <point x="-4.5" y="285"/>
    </contour>
    <contour>
      <point x="166.5" y="19" type="move" smooth="yes"/>
    </contour>
    <contour>
      <point x="-3.63867" y="131.838" type="move" smooth="yes"/>
    </contour>
    <contour>
      <point x="334.639" y="288.162" type="move" smooth="yes"/>
    </contour>
  </outline>
</glyph>
<glyph name="d" format="1">
  <advance width="1000"/>
  <unicode hex="0064"/>
  <outline>
    <contour>
      <point x="331" y="798" type="move"/>
      <point x="331" y="0" type="line"/>
    </contour>
    <contour>
      <point x="330.777" y="289.072" type="curve"/>
      <point x="287.777" y="349.693" type="line"/>
      <point x="230.438" y="389.844" type="line"/>
      <point x="161.5" y="402" type="line"/>
      <point x="92.5645" y="389.844" type="line"/>
      <point x="35.2227" y="349.693" type="line"/>
      <point x="0.222656" y="289.072" type="line"/>
      <point x="3.5" y="288"/>
      <point x="0.222656" y="130.928"/>
      <point x="0.222656" y="130.928" type="curve"/>
      <point x="43.2227" y="70.3066" type="line"/>
      <point x="100.562" y="30.1562" type="line"/>
      <point x="165.5" y="18" type="line"/>
      <point x="238.436" y="30.1562" type="line"/>
      <point x="295.777" y="70.3066" type="line"/>
      <point x="333.777" y="130.928" type="line"/>
      <point x="333.777" y="130.928"/>
      <point x="335.5" y="285"/>
    </contour>
    <contour>
      <point x="164.5" y="19" type="move"/>
    </contour>
    <contour>
      <point x="334.639" y="131.838" type="move" smooth="yes"/>
    </contour>
    <contour>
      <point x="-3.63867" y="288.162" type="move" smooth="yes"/>
    </contour>
  </outline>
</glyph>
<glyph name="bar" format="1">
  <advance width="1000"/>
  <unicode hex="007C"/>
  <outline>
    <contour>
      <point x="0" y="800" type="move"/>
      <point x="0" y="0" type="line"/>
    </contour>
  </outline>
</glyph>
<glyph name="braceright" format="1">
  <advance width="1000"/>
  <unicode hex="007D"/>
  <outline>
    <contour>
      <point x="-3.62207" y="801" type="move" smooth="yes"/>
    </contour>
    <contour>
      <point x="-3.53125" y="-1.79199" type="move" smooth="yes"/>
    </contour>
    <contour>
      <point x="-3.53125" y="-1.79199" type="move" smooth="yes"/>
    </contour>
    <contour>
      <point x="-3.53125" y="-1.79199" type="move" smooth="yes"/>
    </contour>
    <contour>
      <point x="-4.53125" y="797.139" type="move"/>
      <point x="77.3154" y="742" type="line"/>
      <point x="134.674" y="660.084" type="line"/>
      <point x="135.5" y="441" type="line"/>
      <point x="179.5" y="399" type="line"/>
      <point x="132.5" y="360" type="line"/>
      <point x="134.674" y="130.123" type="line"/>
      <point x="77.3154" y="48.208" type="line"/>
      <point x="-3.53125" y="-1.79199" type="line"/>
    </contour>
  </outline>
</glyph>
<glyph name="asciitilde" format="1">
  <advance width="1000"/>
  <unicode hex="007E"/>
  <outline>
    <contour>
      <point x="11.7217" y="379.072" type="move"/>
      <point x="54.7217" y="439.694" type="line"/>
      <point x="112.062" y="479.844" type="line"/>
      <point x="181" y="492" type="line"/>
      <point x="249.936" y="479.844" type="line"/>
      <point x="307.277" y="439.694" type="line"/>
      <point x="342.277" y="379.072" type="line"/>
      <point x="381.785" y="310.149" type="line"/>
      <point x="439.127" y="270" type="line"/>
      <point x="508.062" y="257.844" type="line"/>
      <point x="577" y="270" type="line"/>
      <point x="634.341" y="310.149" type="line"/>
      <point x="677.341" y="370.771" type="line"/>
    </contour>
    <contour>
      <point x="346.138" y="378.163" type="move"/>
    </contour>
  </outline>
</glyph>
<glyph name="guillemotleft" format="1">
  <advance width="1000"/>
  <unicode hex="00AB"/>
  <outline>
    <contour>
      <point x="498.75" y="4" type="move"/>
      <point x="129.5" y="253" type="line"/>
      <point x="495.5" y="504" type="line"/>
    </contour>
    <contour>
      <point x="360.5" y="3" type="move"/>
      <point x="-8.75" y="252" type="line"/>
      <point x="357.25" y="503" type="line"/>
    </contour>
  </outline>
</glyph>
<glyph name="guillemotright" format="1">
  <advance width="1000"/>
  <unicode hex="00BB"/>
  <outline>
    <contour>
      <point x="-8.75" y="503" type="move"/>
      <point x="360.5" y="254" type="line"/>
      <point x="-5.5" y="3" type="line"/>
    </contour>
    <contour>
      <point x="129.5" y="504" type="move"/>
      <point x="498.75" y="255" type="line"/>
      <point x="132.75" y="4" type="line"/>
    </contour>
  </outline>
</glyph>
<glyph name="uniE570" format="1">
  <advance width="1000"/>
  <unicode hex="E570"/>
  <outline>
    <contour>
      <point x="345.278" y="277.928" type="move"/>
      <point x="341" y="282"/>
      <point x="341" y="375"/>
      <point x="341" y="375" type="curve"/>
      <point x="305.277" y="428.694" type="line"/>
      <point x="247.936" y="468.844" type="line"/>
      <point x="179" y="481" type="line"/>
      <point x="110.062" y="468.844" type="line"/>
      <point x="52.7217" y="428.694" type="line"/>
      <point x="10.7217" y="368.072" type="line"/>
      <point x="10.7217" y="368.072"/>
      <point x="-0.722656" y="283.072"/>
      <point x="14" y="279" type="curve"/>
      <point x="49.7227" y="217.306" type="line"/>
      <point x="107.064" y="177.156" type="line"/>
      <point x="176" y="165" type="line"/>
      <point x="244.938" y="177.156" type="line"/>
      <point x="302.278" y="217.306" type="line"/>
      <point x="345.278" y="277.928" type="line"/>
    </contour>
  </outline>
</glyph>
<glyph name="u1F422" format="1">
  <advance width="1120"/>
  <unicode hex="1F422"/>
  <outline>
    <contour>
      <point x="250.511" y="184.66" type="move"/>
      <point x="112.094" y="249.052" type="line"/>
      <point x="-8.68848" y="249.052" type="line"/>
      <point x="-8.68848" y="128.27" type="line"/>
      <point x="192.91" y="127.781" type="line"/>
    </contour>
    <contour>
      <point x="420.368" y="356.02" type="line"/>
      <point x="192.91" y="127.781" type="line"/>
      <point x="342.151" y="127.78" type="line"/>
      <point x="221.191" y="8.98047" type="line"/>
      <point x="309.032" y="8.98047" type="line"/>
      <point x="430.271" y="128.5" type="line"/>
      <point x="893.159" y="128.27" type="line"/>
      <point x="1007.04" y="10.0723" type="line"/>
      <point x="1087.56" y="10.0723" type="line"/>
      <point x="973.684" y="128.27" type="line"/>
      <point x="1134.73" y="128.27" type="line"/>
      <point x="906.976" y="356.02" type="line"/>
    </contour>
  </outline>
</glyph>
<glyph name="u1F422" format="1">
  <advance width="1000"/>
  <unicode hex="1F422"/>
  <outline>
    <contour>
      <point x="300.368" y="800" type="move"/>
      <point x="635.878" y="800" type="line"/>
      <point x="794.038" y="641.84" type="line"/>
      <point x="123.02" y="641.84" type="line"/>
      <point x="682.202" y="641.84" type="line"/>
      <point x="761.282" y="562.759" type="line"/>
      <point x="705.364" y="562.759" type="line"/>
      <point x="626.283" y="641.84" type="line"/>
      <point x="290.774" y="641.84" type="line"/>
      <point x="211.694" y="562.759" type="line"/>
      <point x="267.612" y="562.759" type="line"/>
      <point x="346.692" y="641.84" type="line"/>
      <point x="139.796" y="641.84" type="line"/>
      <point x="297.956" y="800" type="line"/>
      <point x="139.796" y="641.84" type="line"/>
      <point x="0" y="641.84" type="line"/>
      <point x="0" y="725.717" type="line"/>
      <point x="83.877" y="725.717" type="line"/>
      <point x="180.168" y="680.815" type="line"/>
    </contour>
  </outline>
</glyph>
